<svg width="980" height="260" viewBox="0 0 980 260" fill="none" xmlns="http://www.w3.org/2000/svg">
  <defs>
    <linearGradient id="gBlue" x1="0" y1="0" x2="1" y2="1">
      <stop offset="0%" stop-color="#58A6FF"/>
      <stop offset="100%" stop-color="#1E40AF"/>
    </linearGradient>
    <linearGradient id="gSteel" x1="0" y1="0" x2="1" y2="1">
      <stop offset="0%" stop-color="#F8FAFC"/>
      <stop offset="100%" stop-color="#94A3B8"/>
    </linearGradient>
  </defs>

  <rect x="2" y="2" width="976" height="256" rx="28" fill="#0B1220" stroke="#1E293B"/>

  <g transform="translate(44,40)">
    <rect x="0" y="0" width="172" height="172" rx="26" fill="#0F172A" stroke="#1E293B"/>
    <path d="M34 34H138V52H104V138H86V52H34V34Z" fill="url(#gSteel)"/>
    <path d="M86 74C70 74 57 87 57 103C57 119 70 132 86 132C102 132 115 119 115 103C115 87 102 74 86 74ZM86 84C96.5 84 105 92.5 105 103C105 113.5 96.5 122 86 122C75.5 122 67 113.5 67 103C67 92.5 75.5 84 86 84Z" fill="url(#gBlue)"/>
    <path d="M86 62V144" stroke="url(#gBlue)" stroke-width="7" stroke-linecap="round"/>
    <path d="M56 103H116" stroke="url(#gBlue)" stroke-width="7" stroke-linecap="round"/>
  </g>

  <g transform="translate(250,64)">
    <text x="0" y="88" font-family="Inter, Segoe UI, Arial, sans-serif" font-size="84" letter-spacing="14" fill="url(#gSteel)" font-weight="700">ITZALAN</text>
    <text x="5" y="150" font-family="Inter, Segoe UI, Arial, sans-serif" font-size="52" letter-spacing="24" fill="url(#gBlue)" font-weight="700">TECH</text>
    <text x="3" y="184" font-family="Inter, Segoe UI, Arial, sans-serif" font-size="18" letter-spacing="3.4" fill="#94A3B8" font-weight="500">INTELIGENCIA ARTIFICIAL APLICADA AL DERECHO</text>
  </g>
</svg>
